<svg width="21" height="22" viewBox="0 0 21 22" fill="none" xmlns="http://www.w3.org/2000/svg">
<mask id="path-1-inside-1_1520_3400" fill="white">
<path d="M5.97001 22C4.9798 22.0018 4.01137 21.7095 3.18747 21.1602C2.36358 20.6109 1.72134 19.8294 1.34216 18.9146C0.962989 17.9999 0.863958 16.9932 1.05763 16.0221C1.25129 15.051 1.72894 14.1593 2.43001 13.46L10.91 4.98001C11.4723 4.41642 12.2354 4.09928 13.0315 4.09834C13.8276 4.0974 14.5914 4.41275 15.155 4.97501C15.7186 5.53727 16.0357 6.30038 16.0367 7.09647C16.0376 7.89257 15.7223 8.65642 15.16 9.22001L6.67001 17.71C6.48265 17.8963 6.22919 18.0008 5.96501 18.0008C5.70082 18.0008 5.44737 17.8963 5.26001 17.71C5.16628 17.617 5.09188 17.5064 5.04112 17.3846C4.99035 17.2627 4.96421 17.132 4.96421 17C4.96421 16.868 4.99035 16.7373 5.04112 16.6154C5.09188 16.4936 5.16628 16.383 5.26001 16.29L13.74 7.81001C13.8337 7.71705 13.9081 7.60644 13.9589 7.48459C14.0097 7.36273 14.0358 7.23202 14.0358 7.10001C14.0358 6.968 14.0097 6.83729 13.9589 6.71543C13.9081 6.59357 13.8337 6.48297 13.74 6.39001C13.5526 6.20376 13.2992 6.09922 13.035 6.09922C12.7708 6.09922 12.5174 6.20376 12.33 6.39001L3.84001 14.83C3.27775 15.3936 2.9624 16.1575 2.96334 16.9535C2.96428 17.7496 3.28142 18.5128 3.84501 19.075C4.40859 19.6373 5.17245 19.9526 5.96854 19.9517C6.76463 19.9507 7.52775 19.6336 8.09001 19.07L16.57 10.59C17.5089 9.65247 18.0369 8.38036 18.0378 7.05354C18.0387 5.72672 17.5125 4.45388 16.575 3.51501C15.6375 2.57614 14.3654 2.04817 13.0385 2.04723C11.7117 2.04629 10.4389 2.57247 9.50001 3.51001L4.55001 8.51001C4.35871 8.67384 4.11263 8.75944 3.86095 8.74972C3.60928 8.74 3.37054 8.63567 3.19244 8.45757C3.01435 8.27948 2.91002 8.04074 2.9003 7.78906C2.89057 7.53739 2.97618 7.29131 3.14001 7.10001L8.09001 2.10001C9.40283 0.787187 11.1834 0.0496521 13.04 0.0496521C14.8966 0.0496521 16.6772 0.787187 17.99 2.10001C19.3028 3.41283 20.0404 5.1934 20.0404 7.05001C20.0404 8.90662 19.3028 10.6872 17.99 12L9.50001 20.48C9.04096 20.9537 8.49273 21.3319 7.88689 21.5927C7.28105 21.8536 6.62958 21.992 5.97001 22V22Z"/>
</mask>
<path d="M2.43001 13.46L8.78591 19.832L8.79397 19.824L2.43001 13.46ZM10.91 4.98001L17.274 11.344L17.2815 11.3365L10.91 4.98001ZM15.16 9.22001L21.524 15.584L21.5315 15.5765L15.16 9.22001ZM6.67001 17.71L13.015 24.0929C13.0213 24.0866 13.0277 24.0803 13.034 24.074L6.67001 17.71ZM5.26001 17.71L11.605 11.3271L11.5978 11.32L5.26001 17.71ZM5.26001 16.29L11.5978 22.68C11.6066 22.6713 11.6153 22.6627 11.624 22.654L5.26001 16.29ZM13.74 7.81001L7.40219 1.42001C7.39346 1.42867 7.38474 1.43735 7.37605 1.44605L13.74 7.81001ZM13.74 6.39001L7.395 12.7729L7.40219 12.78L13.74 6.39001ZM13.035 6.09922L13.035 -2.90078L13.035 6.09922ZM12.33 6.39001L5.98501 0.0071437L5.98487 0.00728139L12.33 6.39001ZM3.84001 14.83L-2.50513 8.44728C-2.51392 8.45602 -2.52269 8.46477 -2.53144 8.47355L3.84001 14.83ZM8.09001 19.07L1.72604 12.706L1.71856 12.7135L8.09001 19.07ZM16.57 10.59L10.2105 4.22155L10.206 4.22605L16.57 10.59ZM9.50001 3.51001L3.14055 -2.85845C3.12838 -2.8463 3.11625 -2.83411 3.10415 -2.82189L9.50001 3.51001ZM4.55001 8.51001L10.4041 15.3459C10.5915 15.1854 10.7723 15.0173 10.9459 14.8419L4.55001 8.51001ZM3.14001 7.10001L-3.25585 0.768108C-3.40823 0.922026 -3.555 1.08139 -3.69588 1.2459L3.14001 7.10001ZM8.09001 2.10001L1.72605 -4.26395C1.71539 -4.25329 1.70475 -4.24261 1.69415 -4.23189L8.09001 2.10001ZM13.04 0.0496521L13.04 -8.95035L13.04 0.0496521ZM20.0404 7.05001L29.0404 7.05001L20.0404 7.05001ZM17.99 12L24.3502 18.3677L24.354 18.364L17.99 12ZM9.50001 20.48L3.1398 14.1123C3.10525 14.1468 3.07098 14.1816 3.03699 14.2167L9.50001 20.48ZM5.95391 13C6.74607 12.9986 7.52082 13.2324 8.17993 13.6719L-1.80498 28.6486C0.501914 30.1866 3.21353 31.005 5.98611 31L5.95391 13ZM8.17993 13.6719C8.83905 14.1113 9.35284 14.7365 9.65618 15.4683L-6.97185 22.361C-5.91016 24.9222 -4.11188 27.1106 -1.80498 28.6486L8.17993 13.6719ZM9.65618 15.4683C9.95952 16.2001 10.0387 17.0055 9.88381 17.7823L-7.76856 14.2619C-8.31083 16.9809 -8.03354 19.7997 -6.97185 22.361L9.65618 15.4683ZM9.88381 17.7823C9.72888 18.5592 9.34676 19.2726 8.7859 19.832L-3.92589 7.08799C-5.88889 9.04603 -7.22629 11.5428 -7.76856 14.2619L9.88381 17.7823ZM8.79397 19.824L17.274 11.344L4.54605 -1.38395L-3.93395 7.09605L8.79397 19.824ZM17.2815 11.3365C16.1579 12.4627 14.6329 13.0965 13.0421 13.0983L13.0209 -4.90165C9.83783 -4.8979 6.78665 -3.62985 4.53856 -1.37645L17.2815 11.3365ZM13.0421 13.0983C11.4512 13.1002 9.92478 12.47 8.79855 11.3465L21.5115 -1.39644C19.2581 -3.64454 16.2039 -4.9054 13.0209 -4.90165L13.0421 13.0983ZM8.79855 11.3465C7.67232 10.2229 7.03856 8.69793 7.03668 7.10707L25.0367 7.08587C25.0329 3.90283 23.7649 0.851654 21.5115 -1.39644L8.79855 11.3465ZM7.03668 7.10707C7.03481 5.51621 7.66498 3.98977 8.78856 2.86355L21.5315 15.5765C23.7796 13.3231 25.0404 10.2689 25.0367 7.08587L7.03668 7.10707ZM8.79605 2.85605L0.306047 11.346L13.034 24.074L21.524 15.584L8.79605 2.85605ZM0.325008 11.3271C1.82388 9.83716 3.85148 9.0008 5.96501 9.0008V27.0008C8.6069 27.0008 11.1414 25.9554 13.015 24.0929L0.325008 11.3271ZM5.96501 9.0008C8.07853 9.0008 10.1061 9.83716 11.605 11.3271L-1.08499 24.0929C0.788604 25.9554 3.32311 27.0008 5.96501 27.0008V9.0008ZM11.5978 11.32C12.3476 12.0637 12.9428 12.9485 13.349 13.9234L-3.26672 20.8458C-2.75901 22.0644 -2.01505 23.1704 -1.07781 24.1L11.5978 11.32ZM13.349 13.9234C13.7551 14.8983 13.9642 15.9439 13.9642 17H-4.03579C-4.03579 18.3201 -3.77442 19.6272 -3.26672 20.8458L13.349 13.9234ZM13.9642 17C13.9642 18.0561 13.7551 19.1017 13.349 20.0766L-3.26672 13.1542C-3.77442 14.3729 -4.03579 15.6799 -4.03579 17H13.9642ZM13.349 20.0766C12.9428 21.0515 12.3476 21.9363 11.5978 22.68L-1.07781 9.90001C-2.01505 10.8296 -2.75901 11.9356 -3.26672 13.1542L13.349 20.0766ZM11.624 22.654L20.104 14.174L7.37605 1.44605L-1.10395 9.92605L11.624 22.654ZM20.0778 14.2C21.0151 13.2704 21.7591 12.1643 22.2667 10.9458L5.65106 4.0234C6.0572 3.04855 6.65234 2.16373 7.40219 1.42001L20.0778 14.2ZM22.2667 10.9458C22.7744 9.72724 23.0358 8.42019 23.0358 7.10001H5.03581C5.03581 6.04385 5.24494 4.99821 5.65106 4.0234L22.2667 10.9458ZM23.0358 7.10001C23.0358 5.77984 22.7744 4.47279 22.2667 3.25424L5.65106 10.1766C5.24493 9.2018 5.03581 8.15616 5.03581 7.10001H23.0358ZM22.2667 3.25424C21.7591 2.03566 21.0151 0.929643 20.0778 9.56734e-06L7.40219 12.78C6.65236 12.0363 6.05721 11.1515 5.65106 10.1766L22.2667 3.25424ZM20.085 0.00714371C18.2114 -1.85535 15.6769 -2.90078 13.035 -2.90078V15.0992C10.9215 15.0992 8.89389 14.2629 7.39501 12.7729L20.085 0.00714371ZM13.035 -2.90078C10.3931 -2.90078 7.85862 -1.85535 5.98501 0.00714371L18.675 12.7729C17.1761 14.2629 15.1485 15.0992 13.035 15.0992L13.035 -2.90078ZM5.98487 0.00728139L-2.50513 8.44728L10.1851 21.2127L18.6751 12.7727L5.98487 0.00728139ZM-2.53144 8.47355C-4.77954 10.7269 -6.0404 13.7811 -6.03665 16.9641L11.9633 16.9429C11.9652 18.5338 11.335 20.0602 10.2115 21.1865L-2.53144 8.47355ZM-6.03665 16.9641C-6.0329 20.1472 -4.76486 23.1984 -2.51145 25.4465L10.2015 12.7036C11.3277 13.8271 11.9615 15.3521 11.9633 16.9429L-6.03665 16.9641ZM-2.51145 25.4465C-0.258047 27.6946 2.79611 28.9554 5.97914 28.9517L5.95794 10.9517C7.54879 10.9498 9.07523 11.58 10.2015 12.7036L-2.51145 25.4465ZM5.97914 28.9517C9.16218 28.9479 12.2134 27.6799 14.4615 25.4265L1.71856 12.7135C2.84214 11.5873 4.36709 10.9536 5.95794 10.9517L5.97914 28.9517ZM14.454 25.434L22.934 16.954L10.206 4.22605L1.72605 12.706L14.454 25.434ZM22.9295 16.9585C25.5574 14.3343 27.0352 10.7737 27.0378 7.0599L9.03779 7.04718C9.03854 5.98705 9.46039 4.97065 10.2105 4.22155L22.9295 16.9585ZM27.0378 7.0599C27.0404 3.34614 25.5676 -0.216565 22.9435 -2.84445L10.2066 9.87447C9.45746 9.12432 9.03704 8.10731 9.03779 7.04718L27.0378 7.0599ZM22.9435 -2.84445C20.3193 -5.47234 16.7587 -6.95014 13.0449 -6.95277L13.0322 11.0472C11.9721 11.0465 10.9556 10.6246 10.2066 9.87447L22.9435 -2.84445ZM13.0449 -6.95277C9.33114 -6.95539 5.76843 -5.48262 3.14055 -2.85845L15.8595 9.87847C15.1093 10.6276 14.0923 11.048 13.0322 11.0472L13.0449 -6.95277ZM3.10415 -2.82189L-1.84585 2.17811L10.9459 14.8419L15.8959 9.84191L3.10415 -2.82189ZM-1.3041 1.67412C0.22634 0.363482 2.19496 -0.321342 4.20833 -0.243574L3.51358 17.743C6.03031 17.8402 8.49107 16.9842 10.4041 15.3459L-1.3041 1.67412ZM4.20833 -0.243574C6.22171 -0.165806 8.13163 0.668835 9.55641 2.09361L-3.17152 14.8215C-1.39055 16.6025 0.996851 17.6458 3.51358 17.743L4.20833 -0.243574ZM9.55641 2.09361C10.9812 3.51837 11.8158 5.42828 11.8936 7.44169L-6.093 8.13643C-5.99579 10.6532 -4.95246 13.0406 -3.17152 14.8215L9.55641 2.09361ZM11.8936 7.44169C11.9714 9.45512 11.2865 11.4237 9.9759 12.9541L-3.69588 1.2459C-5.33413 3.1589 -6.19021 5.61965 -6.093 8.13643L11.8936 7.44169ZM9.53587 13.4319L14.4859 8.43191L1.69415 -4.23189L-3.25585 0.768108L9.53587 13.4319ZM14.454 8.46397C14.079 8.83898 13.5703 9.04965 13.04 9.04965L13.04 -8.95035C8.79645 -8.95035 4.7267 -7.2646 1.72605 -4.26395L14.454 8.46397ZM13.04 9.04965C12.5097 9.04965 12.0011 8.83898 11.626 8.46397L24.354 -4.26395C21.3533 -7.2646 17.2836 -8.95035 13.04 -8.95035L13.04 9.04965ZM11.626 8.46397C11.251 8.08897 11.0404 7.58035 11.0404 7.05001L29.0404 7.05001C29.0404 2.80645 27.3546 -1.2633 24.354 -4.26395L11.626 8.46397ZM11.0404 7.05001C11.0404 6.51967 11.251 6.01105 11.626 5.63605L24.354 18.364C27.3546 15.3633 29.0404 11.2936 29.0404 7.05001L11.0404 7.05001ZM11.6298 5.6323L3.1398 14.1123L15.8602 26.8477L24.3502 18.3677L11.6298 5.6323ZM3.03699 14.2167C3.40423 13.8377 3.84282 13.5352 4.32749 13.3265L11.4463 29.859C13.1426 29.1285 14.6777 28.0697 15.963 26.7433L3.03699 14.2167ZM4.32749 13.3265C4.81215 13.1178 5.33333 13.0071 5.86099 13.0007L6.07902 30.9993C7.92583 30.977 9.74994 30.5894 11.4463 29.859L4.32749 13.3265Z" fill="#91919F" mask="url(#path-1-inside-1_1520_3400)"/>
</svg>
